<?xml version="1.0" standalone="no"?>
<!DOCTYPE svg PUBLIC "-//W3C//DTD SVG 20010904//EN"
 "http://www.w3.org/TR/2001/REC-SVG-20010904/DTD/svg10.dtd">
<svg version="1.0" xmlns="http://www.w3.org/2000/svg"
 width="180.000000pt" height="180.000000pt" viewBox="0 0 180.000000 180.000000"
 preserveAspectRatio="xMidYMid meet">
<metadata>
Created by potrace 1.11, written by Peter Selinger 2001-2013
</metadata>
<g transform="translate(0.000000,180.000000) scale(0.100000,-0.100000)"
fill="#000000" stroke="none">
<path d="M807 1580 c-375 -19 -556 -31 -572 -40 -48 -26 -48 -26 -17 -677 17
-347 35 -619 41 -631 24 -45 31 -45 678 -14 347 17 619 35 631 41 45 24 45 32
13 677 -16 335 -33 617 -36 627 -12 30 -59 47 -127 46 -35 -1 -310 -14 -611
-29z m403 -369 l0 -60 48 -3 47 -3 0 -50 0 -50 -47 -3 -48 -3 0 -99 c0 -112
11 -135 62 -128 28 4 28 4 28 -48 l0 -53 -44 -6 c-95 -15 -158 24 -175 106 -6
27 -11 90 -11 139 0 89 0 90 -25 90 -24 0 -25 3 -25 55 0 52 1 55 25 55 23 0
25 4 25 44 l0 45 63 14 c34 9 65 16 70 16 4 1 7 -26 7 -58z m-468 -61 c9 0 30
-11 47 -25 l30 -26 3 23 c3 21 9 23 66 26 l62 3 0 -311 0 -311 -67 3 -68 3 -3
108 -3 108 -32 -23 c-25 -18 -45 -23 -93 -23 -51 0 -66 4 -98 29 -103 78 -112
270 -17 365 39 39 98 63 136 55 11 -2 28 -4 37 -4z"/>
<path d="M687 1039 c-43 -25 -60 -124 -32 -179 28 -54 95 -68 133 -27 18 20
22 35 22 96 0 63 -3 75 -25 96 -26 27 -67 32 -98 14z"/>
</g>
</svg>
